# xmcd
#
# Track frame offsets:
#	150
#	14552
#	35104
#	45380
#	63794
#	78646
#	103258
#	116947
#	133111
#	154788
#	174702
#
# Disc length: 2602 seconds
#
# Revision: 0
# Processed by: cddbd v1.5.1PL2 Copyright (c) Steve Scherf et al.
# Submitted via: audiograbber 1.83.01
#
DISCID=9a0a280b
DTITLE=Dogskin Suit - Same Dog, New Suit
DYEAR=2005
DGENRE=Blues
TTITLE0=1-2-Gone
TTITLE1=Cool Little Number
TTITLE2=Nobody Here (Feels Sorry For You)
TTITLE3=Croc Talkin'
TTITLE4=It's Another Day
TTITLE5=This Man
TTITLE6=It Is What It Is
TTITLE7=10 (Dollar) Mistake
TTITLE8=Saturday
TTITLE9=Donnie's Boogie
TTITLE10=I Ain't Leaving (Cause I'm Already Gone)
EXTD=YEAR: 2005
EXTT0=
EXTT1=
EXTT2=
EXTT3=
EXTT4=
EXTT5=
EXTT6=
EXTT7=
EXTT8=
EXTT9=
EXTT10=
PLAYORDER=
